<?xml version="1.0" encoding="utf-8" standalone="no"?>
<!DOCTYPE svg PUBLIC "-//W3C//DTD SVG 1.1//EN"
  "http://www.w3.org/Graphics/SVG/1.1/DTD/svg11.dtd">
<svg xmlns:xlink="http://www.w3.org/1999/xlink" width="358.56pt" height="180pt" viewBox="0 0 358.56 180" xmlns="http://www.w3.org/2000/svg" version="1.1">
 <metadata>
  <rdf:RDF xmlns:dc="http://purl.org/dc/elements/1.1/" xmlns:cc="http://creativecommons.org/ns#" xmlns:rdf="http://www.w3.org/1999/02/22-rdf-syntax-ns#">
   <cc:Work>
    <dc:type rdf:resource="http://purl.org/dc/dcmitype/StillImage"/>
    <dc:date>2023-06-15T11:46:14.048743</dc:date>
    <dc:format>image/svg+xml</dc:format>
    <dc:creator>
     <cc:Agent>
      <dc:title>Matplotlib v3.7.1, https://matplotlib.org/</dc:title>
     </cc:Agent>
    </dc:creator>
   </cc:Work>
  </rdf:RDF>
 </metadata>
 <defs>
  <style type="text/css">*{stroke-linejoin: round; stroke-linecap: butt}</style>
 </defs>
 <g id="figure_1">
  <g id="patch_1">
   <path d="M 0 180 
L 358.56 180 
L 358.56 -0 
L 0 -0 
z
" style="fill: #ffffff"/>
  </g>
  <g id="axes_1">
   <g id="patch_2">
    <path d="M 179.28 179.28 
C 226.634666 179.28 272.056182 169.872896 305.540987 153.130493 
C 339.025792 136.388091 357.84 113.677333 357.84 90 
C 357.84 66.322667 339.025792 43.611909 305.540987 26.869507 
C 272.056182 10.127104 226.634666 0.72 179.28 0.72 
C 131.925334 0.72 86.503818 10.127104 53.019013 26.869507 
C 19.534208 43.611909 0.72 66.322667 0.72 90 
C 0.72 113.677333 19.534208 136.388091 53.019013 153.130493 
C 86.503818 169.872896 131.925334 179.28 179.28 179.28 
z
" style="fill: #ffffff"/>
   </g>
   <g id="matplotlib.axis_1">
    <g id="xtick_1"/>
    <g id="xtick_2"/>
    <g id="xtick_3"/>
    <g id="xtick_4"/>
    <g id="xtick_5"/>
    <g id="xtick_6"/>
    <g id="xtick_7"/>
    <g id="xtick_8"/>
    <g id="xtick_9"/>
    <g id="xtick_10"/>
    <g id="xtick_11"/>
   </g>
   <g id="matplotlib.axis_2">
    <g id="ytick_1"/>
    <g id="ytick_2"/>
    <g id="ytick_3"/>
    <g id="ytick_4"/>
    <g id="ytick_5"/>
    <g id="ytick_6"/>
    <g id="ytick_7"/>
    <g id="ytick_8"/>
    <g id="ytick_9"/>
    <g id="ytick_10"/>
    <g id="ytick_11"/>
   </g>
   <g id="line2d_1">
    <path d="M 49.536082 151.339606 
L 48.193123 150.621581 
L 46.871654 149.899298 
L 45.571455 149.172837 
L 44.292312 148.442274 
L 43.034025 147.707686 
L 41.796403 146.969146 
L 40.579263 146.226727 
L 39.382433 145.480502 
L 38.151619 144.695643 
L 37.00162 143.945658 
L 35.870697 143.191741 
L 34.758785 142.433987 
L 33.665817 141.672486 
L 32.591727 140.907328 
L 31.53645 140.1386 
L 30.499917 139.366387 
L 29.482064 138.59077 
L 28.482823 137.811831 
L 27.502129 137.029649 
L 26.539917 136.244299 
L 25.596124 135.455857 
L 24.670686 134.664397 
L 23.763541 133.869991 
L 22.874628 133.07271 
L 22.003888 132.272622 
L 21.151263 131.469796 
L 20.316694 130.664299 
L 19.500127 129.856197 
L 18.701507 129.045554 
L 17.920781 128.232434 
L 17.157897 127.416899 
L 16.412807 126.599013 
L 15.685461 125.778835 
L 14.975811 124.956427 
L 14.283814 124.131848 
L 13.609423 123.305156 
L 12.952598 122.476411 
L 12.313296 121.645669 
L 11.691479 120.812989 
L 11.087106 119.978426 
L 10.500143 119.142037 
L 9.930552 118.303878 
L 9.378301 117.464004 
L 8.843355 116.622471 
L 8.325685 115.779331 
L 7.825259 114.934641 
L 7.342048 114.088453 
L 6.876025 113.240822 
L 6.427164 112.3918 
L 5.99544 111.541441 
L 5.580827 110.689798 
L 5.183305 109.836924 
L 4.802849 108.982871 
L 4.439441 108.127691 
L 4.093061 107.271436 
L 3.76369 106.414159 
L 3.43656 105.514173 
L 3.144174 104.661552 
L 2.868259 103.807345 
L 2.608856 102.951645 
L 2.366005 102.094543 
L 2.139742 101.236133 
L 1.930102 100.376505 
L 1.737117 99.515753 
L 1.560815 98.653971 
L 1.401223 97.79125 
L 1.258366 96.927685 
L 1.132264 96.063369 
L 1.022937 95.198396 
L 0.930402 94.332858 
L 0.854673 93.466851 
L 0.79576 92.600467 
L 0.753673 91.733802 
L 0.728419 90.866948 
L 0.72 90 
" clip-path="url(#pd310582851)" style="fill: none; stroke: #000000; stroke-width: 0.5; stroke-linecap: square"/>
   </g>
   <g id="line2d_2">
    <path d="M 114.408041 151.339606 
L 113.736561 150.621581 
L 113.075827 149.899298 
L 112.425727 149.172837 
L 111.786156 148.442274 
L 111.157013 147.707686 
L 110.538202 146.969146 
L 109.929632 146.226727 
L 109.331216 145.480502 
L 108.715809 144.695643 
L 108.14081 143.945658 
L 107.575349 143.191741 
L 107.019392 142.433987 
L 106.472908 141.672486 
L 105.935864 140.907328 
L 105.408225 140.1386 
L 104.889959 139.366387 
L 104.381032 138.59077 
L 103.881411 137.811831 
L 103.391064 137.029649 
L 102.909959 136.244299 
L 102.438062 135.455857 
L 101.975343 134.664397 
L 101.52177 133.869991 
L 101.077314 133.07271 
L 100.641944 132.272622 
L 100.215631 131.469796 
L 99.798347 130.664299 
L 99.390063 129.856197 
L 98.990753 129.045554 
L 98.60039 128.232434 
L 98.218949 127.416899 
L 97.846403 126.599013 
L 97.48273 125.778835 
L 97.127906 124.956427 
L 96.781907 124.131848 
L 96.444712 123.305156 
L 96.116299 122.476411 
L 95.796648 121.645669 
L 95.485739 120.812989 
L 95.183553 119.978426 
L 94.890071 119.142037 
L 94.605276 118.303878 
L 94.32915 117.464004 
L 94.061678 116.622471 
L 93.802842 115.779331 
L 93.552629 114.934641 
L 93.311024 114.088453 
L 93.078013 113.240822 
L 92.853582 112.3918 
L 92.63772 111.541441 
L 92.430414 110.689798 
L 92.231652 109.836924 
L 92.041425 108.982871 
L 91.859721 108.127691 
L 91.686531 107.271436 
L 91.521845 106.414159 
L 91.35828 105.514173 
L 91.212087 104.661552 
L 91.074129 103.807345 
L 90.944428 102.951645 
L 90.823002 102.094543 
L 90.709871 101.236133 
L 90.605051 100.376505 
L 90.508558 99.515753 
L 90.420407 98.653971 
L 90.340612 97.79125 
L 90.269183 96.927685 
L 90.206132 96.063369 
L 90.151469 95.198396 
L 90.105201 94.332858 
L 90.067336 93.466851 
L 90.03788 92.600467 
L 90.016837 91.733802 
L 90.004209 90.866948 
L 90 90 
" clip-path="url(#pd310582851)" style="fill: none; stroke: #000000; stroke-width: 0.5; stroke-linecap: square"/>
   </g>
   <g id="line2d_3">
    <path d="M 179.28 151.339606 
L 179.28 150.621581 
L 179.28 149.899298 
L 179.28 149.172837 
L 179.28 148.442274 
L 179.28 147.707686 
L 179.28 146.969146 
L 179.28 146.226727 
L 179.28 145.480502 
L 179.28 144.695643 
L 179.28 143.945658 
L 179.28 143.191741 
L 179.28 142.433987 
L 179.28 141.672486 
L 179.28 140.907328 
L 179.28 140.1386 
L 179.28 139.366387 
L 179.28 138.59077 
L 179.28 137.811831 
L 179.28 137.029649 
L 179.28 136.244299 
L 179.28 135.455857 
L 179.28 134.664397 
L 179.28 133.869991 
L 179.28 133.07271 
L 179.28 132.272622 
L 179.28 131.469796 
L 179.28 130.664299 
L 179.28 129.856197 
L 179.28 129.045554 
L 179.28 128.232434 
L 179.28 127.416899 
L 179.28 126.599013 
L 179.28 125.778835 
L 179.28 124.956427 
L 179.28 124.131848 
L 179.28 123.305156 
L 179.28 122.476411 
L 179.28 121.645669 
L 179.28 120.812989 
L 179.28 119.978426 
L 179.28 119.142037 
L 179.28 118.303878 
L 179.28 117.464004 
L 179.28 116.622471 
L 179.28 115.779331 
L 179.28 114.934641 
L 179.28 114.088453 
L 179.28 113.240822 
L 179.28 112.3918 
L 179.28 111.541441 
L 179.28 110.689798 
L 179.28 109.836924 
L 179.28 108.982871 
L 179.28 108.127691 
L 179.28 107.271436 
L 179.28 106.414159 
L 179.28 105.514173 
L 179.28 104.661552 
L 179.28 103.807345 
L 179.28 102.951645 
L 179.28 102.094543 
L 179.28 101.236133 
L 179.28 100.376505 
L 179.28 99.515753 
L 179.28 98.653971 
L 179.28 97.79125 
L 179.28 96.927685 
L 179.28 96.063369 
L 179.28 95.198396 
L 179.28 94.332858 
L 179.28 93.466851 
L 179.28 92.600467 
L 179.28 91.733802 
L 179.28 90.866948 
L 179.28 90 
" clip-path="url(#pd310582851)" style="fill: none; stroke: #000000; stroke-width: 0.5; stroke-linecap: square"/>
   </g>
   <g id="line2d_4">
    <path d="M 244.151959 151.339606 
L 244.823439 150.621581 
L 245.484173 149.899298 
L 246.134273 149.172837 
L 246.773844 148.442274 
L 247.402987 147.707686 
L 248.021798 146.969146 
L 248.630368 146.226727 
L 249.228784 145.480502 
L 249.844191 144.695643 
L 250.41919 143.945658 
L 250.984651 143.191741 
L 251.540608 142.433987 
L 252.087092 141.672486 
L 252.624136 140.907328 
L 253.151775 140.1386 
L 253.670041 139.366387 
L 254.178968 138.59077 
L 254.678589 137.811831 
L 255.168936 137.029649 
L 255.650041 136.244299 
L 256.121938 135.455857 
L 256.584657 134.664397 
L 257.03823 133.869991 
L 257.482686 133.07271 
L 257.918056 132.272622 
L 258.344369 131.469796 
L 258.761653 130.664299 
L 259.169937 129.856197 
L 259.569247 129.045554 
L 259.95961 128.232434 
L 260.341051 127.416899 
L 260.713597 126.599013 
L 261.07727 125.778835 
L 261.432094 124.956427 
L 261.778093 124.131848 
L 262.115288 123.305156 
L 262.443701 122.476411 
L 262.763352 121.645669 
L 263.074261 120.812989 
L 263.376447 119.978426 
L 263.669929 119.142037 
L 263.954724 118.303878 
L 264.23085 117.464004 
L 264.498322 116.622471 
L 264.757158 115.779331 
L 265.007371 114.934641 
L 265.248976 114.088453 
L 265.481987 113.240822 
L 265.706418 112.3918 
L 265.92228 111.541441 
L 266.129586 110.689798 
L 266.328348 109.836924 
L 266.518575 108.982871 
L 266.700279 108.127691 
L 266.873469 107.271436 
L 267.038155 106.414159 
L 267.20172 105.514173 
L 267.347913 104.661552 
L 267.485871 103.807345 
L 267.615572 102.951645 
L 267.736998 102.094543 
L 267.850129 101.236133 
L 267.954949 100.376505 
L 268.051442 99.515753 
L 268.139593 98.653971 
L 268.219388 97.79125 
L 268.290817 96.927685 
L 268.353868 96.063369 
L 268.408531 95.198396 
L 268.454799 94.332858 
L 268.492664 93.466851 
L 268.52212 92.600467 
L 268.543163 91.733802 
L 268.555791 90.866948 
L 268.56 90 
" clip-path="url(#pd310582851)" style="fill: none; stroke: #000000; stroke-width: 0.5; stroke-linecap: square"/>
   </g>
   <g id="line2d_5">
    <path d="M 49.536082 151.339606 
L 52.995919 151.339606 
L 56.455757 151.339606 
L 59.915595 151.339606 
L 63.375433 151.339606 
L 66.835271 151.339606 
L 70.295108 151.339606 
L 73.754946 151.339606 
L 77.214784 151.339606 
L 80.674622 151.339606 
L 84.13446 151.339606 
L 87.594298 151.339606 
L 91.054135 151.339606 
L 94.513973 151.339606 
L 97.973811 151.339606 
L 101.433649 151.339606 
L 104.893487 151.339606 
L 108.353325 151.339606 
L 111.813162 151.339606 
L 115.273 151.339606 
L 118.732838 151.339606 
L 122.192676 151.339606 
L 125.652514 151.339606 
L 129.112352 151.339606 
L 132.572189 151.339606 
L 136.032027 151.339606 
L 139.491865 151.339606 
L 142.951703 151.339606 
L 146.411541 151.339606 
L 149.871378 151.339606 
L 153.331216 151.339606 
L 156.791054 151.339606 
L 160.250892 151.339606 
L 163.71073 151.339606 
L 167.170568 151.339606 
L 170.630405 151.339606 
L 174.090243 151.339606 
L 177.550081 151.339606 
L 181.009919 151.339606 
L 184.469757 151.339606 
L 187.929595 151.339606 
L 191.389432 151.339606 
L 194.84927 151.339606 
L 198.309108 151.339606 
L 201.768946 151.339606 
L 205.228784 151.339606 
L 208.688622 151.339606 
L 212.148459 151.339606 
L 215.608297 151.339606 
L 219.068135 151.339606 
L 222.527973 151.339606 
L 225.987811 151.339606 
L 229.447648 151.339606 
L 232.907486 151.339606 
L 236.367324 151.339606 
L 239.827162 151.339606 
L 243.287 151.339606 
L 246.746838 151.339606 
L 250.206675 151.339606 
L 253.666513 151.339606 
L 257.126351 151.339606 
L 260.586189 151.339606 
L 264.046027 151.339606 
L 267.505865 151.339606 
L 270.965702 151.339606 
L 274.42554 151.339606 
L 277.885378 151.339606 
L 281.345216 151.339606 
L 284.805054 151.339606 
L 288.264892 151.339606 
L 291.724729 151.339606 
L 295.184567 151.339606 
L 298.644405 151.339606 
L 302.104243 151.339606 
L 305.564081 151.339606 
L 309.023918 151.339606 
" clip-path="url(#pd310582851)" style="fill: none; stroke: #000000; stroke-width: 0.5; stroke-linecap: square"/>
   </g>
   <g id="line2d_6">
    <path d="M 0.72 90 
L 0.728419 89.133052 
L 0.753673 88.266198 
L 0.79576 87.399533 
L 0.854673 86.533149 
L 0.930402 85.667142 
L 1.022937 84.801604 
L 1.132264 83.936631 
L 1.258366 83.072315 
L 1.401223 82.20875 
L 1.560815 81.346029 
L 1.737117 80.484247 
L 1.930102 79.623495 
L 2.139742 78.763867 
L 2.366005 77.905457 
L 2.608856 77.048355 
L 2.868259 76.192655 
L 3.144174 75.338448 
L 3.43656 74.485827 
L 3.76369 73.585841 
L 4.093061 72.728564 
L 4.439441 71.872309 
L 4.802849 71.017129 
L 5.183305 70.163076 
L 5.580827 69.310202 
L 5.99544 68.458559 
L 6.427164 67.6082 
L 6.876025 66.759178 
L 7.342048 65.911547 
L 7.825259 65.065359 
L 8.325685 64.220669 
L 8.843355 63.377529 
L 9.378301 62.535996 
L 9.930552 61.696122 
L 10.500143 60.857963 
L 11.087106 60.021574 
L 11.691479 59.187011 
L 12.313296 58.354331 
L 12.952598 57.523589 
L 13.609423 56.694844 
L 14.283814 55.868152 
L 14.975811 55.043573 
L 15.685461 54.221165 
L 16.412807 53.400987 
L 17.157897 52.583101 
L 17.920781 51.767566 
L 18.701507 50.954446 
L 19.500127 50.143803 
L 20.316694 49.335701 
L 21.151263 48.530204 
L 22.003888 47.727378 
L 22.874628 46.92729 
L 23.763541 46.130009 
L 24.670686 45.335603 
L 25.596124 44.544143 
L 26.539917 43.755701 
L 27.502129 42.970351 
L 28.482823 42.188169 
L 29.482064 41.40923 
L 30.499917 40.633613 
L 31.53645 39.8614 
L 32.591727 39.092672 
L 33.665817 38.327514 
L 34.758785 37.566013 
L 35.870697 36.808259 
L 37.00162 36.054342 
L 38.151619 35.304357 
L 39.382433 34.519498 
L 40.579263 33.773273 
L 41.796403 33.030854 
L 43.034025 32.292314 
L 44.292312 31.557726 
L 45.571455 30.827163 
L 46.871654 30.100702 
L 48.193123 29.378419 
L 49.536082 28.660394 
" clip-path="url(#pd310582851)" style="fill: none; stroke: #000000; stroke-width: 0.5; stroke-linecap: square"/>
   </g>
   <g id="line2d_7">
    <path d="M 90 90 
L 90.004209 89.133052 
L 90.016837 88.266198 
L 90.03788 87.399533 
L 90.067336 86.533149 
L 90.105201 85.667142 
L 90.151469 84.801604 
L 90.206132 83.936631 
L 90.269183 83.072315 
L 90.340612 82.20875 
L 90.420407 81.346029 
L 90.508558 80.484247 
L 90.605051 79.623495 
L 90.709871 78.763867 
L 90.823002 77.905457 
L 90.944428 77.048355 
L 91.074129 76.192655 
L 91.212087 75.338448 
L 91.35828 74.485827 
L 91.521845 73.585841 
L 91.686531 72.728564 
L 91.859721 71.872309 
L 92.041425 71.017129 
L 92.231652 70.163076 
L 92.430414 69.310202 
L 92.63772 68.458559 
L 92.853582 67.6082 
L 93.078013 66.759178 
L 93.311024 65.911547 
L 93.552629 65.065359 
L 93.802842 64.220669 
L 94.061678 63.377529 
L 94.32915 62.535996 
L 94.605276 61.696122 
L 94.890071 60.857963 
L 95.183553 60.021574 
L 95.485739 59.187011 
L 95.796648 58.354331 
L 96.116299 57.523589 
L 96.444712 56.694844 
L 96.781907 55.868152 
L 97.127906 55.043573 
L 97.48273 54.221165 
L 97.846403 53.400987 
L 98.218949 52.583101 
L 98.60039 51.767566 
L 98.990753 50.954446 
L 99.390063 50.143803 
L 99.798347 49.335701 
L 100.215631 48.530204 
L 100.641944 47.727378 
L 101.077314 46.92729 
L 101.52177 46.130009 
L 101.975343 45.335603 
L 102.438062 44.544143 
L 102.909959 43.755701 
L 103.391064 42.970351 
L 103.881411 42.188169 
L 104.381032 41.40923 
L 104.889959 40.633613 
L 105.408225 39.8614 
L 105.935864 39.092672 
L 106.472908 38.327514 
L 107.019392 37.566013 
L 107.575349 36.808259 
L 108.14081 36.054342 
L 108.715809 35.304357 
L 109.331216 34.519498 
L 109.929632 33.773273 
L 110.538202 33.030854 
L 111.157013 32.292314 
L 111.786156 31.557726 
L 112.425727 30.827163 
L 113.075827 30.100702 
L 113.736561 29.378419 
L 114.408041 28.660394 
" clip-path="url(#pd310582851)" style="fill: none; stroke: #000000; stroke-width: 0.5; stroke-linecap: square"/>
   </g>
   <g id="line2d_8">
    <path d="M 179.28 90 
L 179.28 89.133052 
L 179.28 88.266198 
L 179.28 87.399533 
L 179.28 86.533149 
L 179.28 85.667142 
L 179.28 84.801604 
L 179.28 83.936631 
L 179.28 83.072315 
L 179.28 82.20875 
L 179.28 81.346029 
L 179.28 80.484247 
L 179.28 79.623495 
L 179.28 78.763867 
L 179.28 77.905457 
L 179.28 77.048355 
L 179.28 76.192655 
L 179.28 75.338448 
L 179.28 74.485827 
L 179.28 73.585841 
L 179.28 72.728564 
L 179.28 71.872309 
L 179.28 71.017129 
L 179.28 70.163076 
L 179.28 69.310202 
L 179.28 68.458559 
L 179.28 67.6082 
L 179.28 66.759178 
L 179.28 65.911547 
L 179.28 65.065359 
L 179.28 64.220669 
L 179.28 63.377529 
L 179.28 62.535996 
L 179.28 61.696122 
L 179.28 60.857963 
L 179.28 60.021574 
L 179.28 59.187011 
L 179.28 58.354331 
L 179.28 57.523589 
L 179.28 56.694844 
L 179.28 55.868152 
L 179.28 55.043573 
L 179.28 54.221165 
L 179.28 53.400987 
L 179.28 52.583101 
L 179.28 51.767566 
L 179.28 50.954446 
L 179.28 50.143803 
L 179.28 49.335701 
L 179.28 48.530204 
L 179.28 47.727378 
L 179.28 46.92729 
L 179.28 46.130009 
L 179.28 45.335603 
L 179.28 44.544143 
L 179.28 43.755701 
L 179.28 42.970351 
L 179.28 42.188169 
L 179.28 41.40923 
L 179.28 40.633613 
L 179.28 39.8614 
L 179.28 39.092672 
L 179.28 38.327514 
L 179.28 37.566013 
L 179.28 36.808259 
L 179.28 36.054342 
L 179.28 35.304357 
L 179.28 34.519498 
L 179.28 33.773273 
L 179.28 33.030854 
L 179.28 32.292314 
L 179.28 31.557726 
L 179.28 30.827163 
L 179.28 30.100702 
L 179.28 29.378419 
L 179.28 28.660394 
" clip-path="url(#pd310582851)" style="fill: none; stroke: #000000; stroke-width: 0.5; stroke-linecap: square"/>
   </g>
   <g id="line2d_9">
    <path d="M 268.56 90 
L 268.555791 89.133052 
L 268.543163 88.266198 
L 268.52212 87.399533 
L 268.492664 86.533149 
L 268.454799 85.667142 
L 268.408531 84.801604 
L 268.353868 83.936631 
L 268.290817 83.072315 
L 268.219388 82.20875 
L 268.139593 81.346029 
L 268.051442 80.484247 
L 267.954949 79.623495 
L 267.850129 78.763867 
L 267.736998 77.905457 
L 267.615572 77.048355 
L 267.485871 76.192655 
L 267.347913 75.338448 
L 267.20172 74.485827 
L 267.038155 73.585841 
L 266.873469 72.728564 
L 266.700279 71.872309 
L 266.518575 71.017129 
L 266.328348 70.163076 
L 266.129586 69.310202 
L 265.92228 68.458559 
L 265.706418 67.6082 
L 265.481987 66.759178 
L 265.248976 65.911547 
L 265.007371 65.065359 
L 264.757158 64.220669 
L 264.498322 63.377529 
L 264.23085 62.535996 
L 263.954724 61.696122 
L 263.669929 60.857963 
L 263.376447 60.021574 
L 263.074261 59.187011 
L 262.763352 58.354331 
L 262.443701 57.523589 
L 262.115288 56.694844 
L 261.778093 55.868152 
L 261.432094 55.043573 
L 261.07727 54.221165 
L 260.713597 53.400987 
L 260.341051 52.583101 
L 259.95961 51.767566 
L 259.569247 50.954446 
L 259.169937 50.143803 
L 258.761653 49.335701 
L 258.344369 48.530204 
L 257.918056 47.727378 
L 257.482686 46.92729 
L 257.03823 46.130009 
L 256.584657 45.335603 
L 256.121938 44.544143 
L 255.650041 43.755701 
L 255.168936 42.970351 
L 254.678589 42.188169 
L 254.178968 41.40923 
L 253.670041 40.633613 
L 253.151775 39.8614 
L 252.624136 39.092672 
L 252.087092 38.327514 
L 251.540608 37.566013 
L 250.984651 36.808259 
L 250.41919 36.054342 
L 249.844191 35.304357 
L 249.228784 34.519498 
L 248.630368 33.773273 
L 248.021798 33.030854 
L 247.402987 32.292314 
L 246.773844 31.557726 
L 246.134273 30.827163 
L 245.484173 30.100702 
L 244.823439 29.378419 
L 244.151959 28.660394 
" clip-path="url(#pd310582851)" style="fill: none; stroke: #000000; stroke-width: 0.5; stroke-linecap: square"/>
   </g>
   <g id="line2d_10">
    <path d="M 0.72 90 
L 5.4816 90 
L 10.2432 90 
L 15.0048 90 
L 19.7664 90 
L 24.528 90 
L 29.2896 90 
L 34.0512 90 
L 38.8128 90 
L 43.5744 90 
L 48.336 90 
L 53.0976 90 
L 57.8592 90 
L 62.6208 90 
L 67.3824 90 
L 72.144 90 
L 76.9056 90 
L 81.6672 90 
L 86.4288 90 
L 91.1904 90 
L 95.952 90 
L 100.7136 90 
L 105.4752 90 
L 110.2368 90 
L 114.9984 90 
L 119.76 90 
L 124.5216 90 
L 129.2832 90 
L 134.0448 90 
L 138.8064 90 
L 143.568 90 
L 148.3296 90 
L 153.0912 90 
L 157.8528 90 
L 162.6144 90 
L 167.376 90 
L 172.1376 90 
L 176.8992 90 
L 181.6608 90 
L 186.4224 90 
L 191.184 90 
L 195.9456 90 
L 200.7072 90 
L 205.4688 90 
L 210.2304 90 
L 214.992 90 
L 219.7536 90 
L 224.5152 90 
L 229.2768 90 
L 234.0384 90 
L 238.8 90 
L 243.5616 90 
L 248.3232 90 
L 253.0848 90 
L 257.8464 90 
L 262.608 90 
L 267.3696 90 
L 272.1312 90 
L 276.8928 90 
L 281.6544 90 
L 286.416 90 
L 291.1776 90 
L 295.9392 90 
L 300.7008 90 
L 305.4624 90 
L 310.224 90 
L 314.9856 90 
L 319.7472 90 
L 324.5088 90 
L 329.2704 90 
L 334.032 90 
L 338.7936 90 
L 343.5552 90 
L 348.3168 90 
L 353.0784 90 
L 357.84 90 
" clip-path="url(#pd310582851)" style="fill: none; stroke: #000000; stroke-width: 0.5; stroke-linecap: square"/>
   </g>
   <g id="line2d_11">
    <path d="M 49.536082 28.660394 
L 52.995919 28.660394 
L 56.455757 28.660394 
L 59.915595 28.660394 
L 63.375433 28.660394 
L 66.835271 28.660394 
L 70.295108 28.660394 
L 73.754946 28.660394 
L 77.214784 28.660394 
L 80.674622 28.660394 
L 84.13446 28.660394 
L 87.594298 28.660394 
L 91.054135 28.660394 
L 94.513973 28.660394 
L 97.973811 28.660394 
L 101.433649 28.660394 
L 104.893487 28.660394 
L 108.353325 28.660394 
L 111.813162 28.660394 
L 115.273 28.660394 
L 118.732838 28.660394 
L 122.192676 28.660394 
L 125.652514 28.660394 
L 129.112352 28.660394 
L 132.572189 28.660394 
L 136.032027 28.660394 
L 139.491865 28.660394 
L 142.951703 28.660394 
L 146.411541 28.660394 
L 149.871378 28.660394 
L 153.331216 28.660394 
L 156.791054 28.660394 
L 160.250892 28.660394 
L 163.71073 28.660394 
L 167.170568 28.660394 
L 170.630405 28.660394 
L 174.090243 28.660394 
L 177.550081 28.660394 
L 181.009919 28.660394 
L 184.469757 28.660394 
L 187.929595 28.660394 
L 191.389432 28.660394 
L 194.84927 28.660394 
L 198.309108 28.660394 
L 201.768946 28.660394 
L 205.228784 28.660394 
L 208.688622 28.660394 
L 212.148459 28.660394 
L 215.608297 28.660394 
L 219.068135 28.660394 
L 222.527973 28.660394 
L 225.987811 28.660394 
L 229.447648 28.660394 
L 232.907486 28.660394 
L 236.367324 28.660394 
L 239.827162 28.660394 
L 243.287 28.660394 
L 246.746838 28.660394 
L 250.206675 28.660394 
L 253.666513 28.660394 
L 257.126351 28.660394 
L 260.586189 28.660394 
L 264.046027 28.660394 
L 267.505865 28.660394 
L 270.965702 28.660394 
L 274.42554 28.660394 
L 277.885378 28.660394 
L 281.345216 28.660394 
L 284.805054 28.660394 
L 288.264892 28.660394 
L 291.724729 28.660394 
L 295.184567 28.660394 
L 298.644405 28.660394 
L 302.104243 28.660394 
L 305.564081 28.660394 
L 309.023918 28.660394 
" clip-path="url(#pd310582851)" style="fill: none; stroke: #000000; stroke-width: 0.5; stroke-linecap: square"/>
   </g>
   <g id="patch_3">
    <path d="M 179.28 179.28 
C 226.634666 179.28 272.056182 169.872896 305.540987 153.130493 
C 339.025792 136.388091 357.84 113.677333 357.84 90 
C 357.84 66.322667 339.025792 43.611909 305.540987 26.869507 
C 272.056182 10.127104 226.634666 0.72 179.28 0.72 
C 131.925334 0.72 86.503818 10.127104 53.019013 26.869507 
C 19.534208 43.611909 0.72 66.322667 0.72 90 
C 0.72 113.677333 19.534208 136.388091 53.019013 153.130493 
C 86.503818 169.872896 131.925334 179.28 179.28 179.28 
L 179.28 179.28 
z
" style="fill: none; stroke: #000000; stroke-width: 0.8; stroke-linejoin: miter; stroke-linecap: square"/>
   </g>
  </g>
 </g>
 <defs>
  <clipPath id="pd310582851">
   <path d="M 179.28 179.28 
C 226.634666 179.28 272.056182 169.872896 305.540987 153.130493 
C 339.025792 136.388091 357.84 113.677333 357.84 90 
C 357.84 66.322667 339.025792 43.611909 305.540987 26.869507 
C 272.056182 10.127104 226.634666 0.72 179.28 0.72 
C 131.925334 0.72 86.503818 10.127104 53.019013 26.869507 
C 19.534208 43.611909 0.72 66.322667 0.72 90 
C 0.72 113.677333 19.534208 136.388091 53.019013 153.130493 
C 86.503818 169.872896 131.925334 179.28 179.28 179.28 
z
"/>
  </clipPath>
 </defs>
</svg>
