<?xml version="1.0" encoding="utf-8" standalone="no"?>
<!DOCTYPE svg PUBLIC "-//W3C//DTD SVG 1.1//EN"
  "http://www.w3.org/Graphics/SVG/1.1/DTD/svg11.dtd">
<svg xmlns:xlink="http://www.w3.org/1999/xlink" width="358.56pt" height="180pt" viewBox="0 0 358.56 180" xmlns="http://www.w3.org/2000/svg" version="1.1">
 <metadata>
  <rdf:RDF xmlns:dc="http://purl.org/dc/elements/1.1/" xmlns:cc="http://creativecommons.org/ns#" xmlns:rdf="http://www.w3.org/1999/02/22-rdf-syntax-ns#">
   <cc:Work>
    <dc:type rdf:resource="http://purl.org/dc/dcmitype/StillImage"/>
    <dc:date>2023-06-15T11:42:50.629886</dc:date>
    <dc:format>image/svg+xml</dc:format>
    <dc:creator>
     <cc:Agent>
      <dc:title>Matplotlib v3.7.1, https://matplotlib.org/</dc:title>
     </cc:Agent>
    </dc:creator>
   </cc:Work>
  </rdf:RDF>
 </metadata>
 <defs>
  <style type="text/css">*{stroke-linejoin: round; stroke-linecap: butt}</style>
 </defs>
 <g id="figure_1">
  <g id="patch_1">
   <path d="M 0 180 
L 358.56 180 
L 358.56 -0 
L 0 -0 
z
" style="fill: #ffffff"/>
  </g>
  <g id="axes_1">
   <g id="patch_2">
    <path d="M 179.28 179.28 
C 226.634666 179.28 272.056182 169.872896 305.540987 153.130493 
C 339.025792 136.388091 357.84 113.677333 357.84 90 
C 357.84 66.322667 339.025792 43.611909 305.540987 26.869507 
C 272.056182 10.127104 226.634666 0.72 179.28 0.72 
C 131.925334 0.72 86.503818 10.127104 53.019013 26.869507 
C 19.534208 43.611909 0.72 66.322667 0.72 90 
C 0.72 113.677333 19.534208 136.388091 53.019013 153.130493 
C 86.503818 169.872896 131.925334 179.28 179.28 179.28 
z
" style="fill: #ffffff"/>
   </g>
   <g id="matplotlib.axis_1">
    <g id="xtick_1"/>
    <g id="xtick_2"/>
    <g id="xtick_3"/>
    <g id="xtick_4"/>
    <g id="xtick_5"/>
    <g id="xtick_6"/>
    <g id="xtick_7"/>
    <g id="xtick_8"/>
    <g id="xtick_9"/>
    <g id="xtick_10"/>
    <g id="xtick_11"/>
   </g>
   <g id="matplotlib.axis_2">
    <g id="ytick_1"/>
    <g id="ytick_2"/>
    <g id="ytick_3"/>
    <g id="ytick_4"/>
    <g id="ytick_5"/>
    <g id="ytick_6"/>
    <g id="ytick_7"/>
    <g id="ytick_8"/>
    <g id="ytick_9"/>
    <g id="ytick_10"/>
    <g id="ytick_11"/>
   </g>
   <g id="line2d_1">
    <path d="M 23.805428 133.907092 
L 22.575415 132.799961 
L 21.38037 131.687469 
L 20.220138 130.569797 
L 19.094569 129.447121 
L 18.003521 128.319612 
L 16.946853 127.187441 
L 15.924433 126.050771 
L 14.936133 124.909766 
L 13.98183 123.764585 
L 13.061408 122.615385 
L 12.174755 121.462321 
L 11.321764 120.305547 
L 10.502336 119.145213 
L 9.716374 117.981468 
L 8.963787 116.814461 
L 8.24449 115.644337 
L 7.558403 114.471241 
L 6.905448 113.295318 
L 6.285555 112.116711 
L 5.698657 110.935561 
L 5.14469 109.752009 
L 4.623597 108.566197 
L 4.135324 107.378262 
L 3.679819 106.188346 
L 3.244311 104.959194 
L 2.857823 103.77397 
L 2.503145 102.585875 
L 2.180381 101.395157 
L 1.889624 100.202062 
L 1.630961 99.006838 
L 1.404465 97.809734 
L 1.210204 96.611 
L 1.048233 95.410884 
L 0.918599 94.209639 
L 0.821341 93.007513 
L 0.756486 91.804759 
L 0.724054 90.601628 
L 0.724054 89.398372 
L 0.756486 88.195241 
L 0.821341 86.992487 
L 0.918599 85.790361 
L 1.048233 84.589116 
L 1.210204 83.389 
L 1.404465 82.190266 
L 1.630961 80.993162 
L 1.889624 79.797938 
L 2.180381 78.604843 
L 2.503145 77.414125 
L 2.857823 76.22603 
L 3.244311 75.040806 
L 3.679819 73.811654 
L 4.135324 72.621738 
L 4.623597 71.433803 
L 5.14469 70.247991 
L 5.698657 69.064439 
L 6.285555 67.883289 
L 6.905448 66.704682 
L 7.558403 65.528759 
L 8.24449 64.355663 
L 8.963787 63.185539 
L 9.716374 62.018532 
L 10.502336 60.854787 
L 11.321764 59.694453 
L 12.174755 58.537679 
L 13.061408 57.384615 
L 13.98183 56.235415 
L 14.936133 55.090234 
L 15.924433 53.949229 
L 16.946853 52.812559 
L 18.003521 51.680388 
L 19.094569 50.552879 
L 20.220138 49.430203 
L 21.38037 48.312531 
L 22.575415 47.200039 
L 23.805428 46.092908 
" clip-path="url(#padf24f9ae4)" style="fill: none; stroke: #000000; stroke-width: 0.5; stroke-linecap: square"/>
   </g>
   <g id="line2d_2">
    <path d="M 127.455143 133.907092 
L 127.045138 132.799961 
L 126.64679 131.687469 
L 126.260046 130.569797 
L 125.884856 129.447121 
L 125.521174 128.319612 
L 125.168951 127.187441 
L 124.828144 126.050771 
L 124.498711 124.909766 
L 124.18061 123.764585 
L 123.873803 122.615385 
L 123.578252 121.462321 
L 123.293921 120.305547 
L 123.020779 119.145213 
L 122.758791 117.981468 
L 122.507929 116.814461 
L 122.268163 115.644337 
L 122.039468 114.471241 
L 121.821816 113.295318 
L 121.615185 112.116711 
L 121.419552 110.935561 
L 121.234897 109.752009 
L 121.061199 108.566197 
L 120.898441 107.378262 
L 120.746606 106.188346 
L 120.601437 104.959194 
L 120.472608 103.77397 
L 120.354382 102.585875 
L 120.246794 101.395157 
L 120.149875 100.202062 
L 120.063654 99.006838 
L 119.988155 97.809734 
L 119.923401 96.611 
L 119.869411 95.410884 
L 119.8262 94.209639 
L 119.79378 93.007513 
L 119.772162 91.804759 
L 119.761351 90.601628 
L 119.761351 89.398372 
L 119.772162 88.195241 
L 119.79378 86.992487 
L 119.8262 85.790361 
L 119.869411 84.589116 
L 119.923401 83.389 
L 119.988155 82.190266 
L 120.063654 80.993162 
L 120.149875 79.797938 
L 120.246794 78.604843 
L 120.354382 77.414125 
L 120.472608 76.22603 
L 120.601437 75.040806 
L 120.746606 73.811654 
L 120.898441 72.621738 
L 121.061199 71.433803 
L 121.234897 70.247991 
L 121.419552 69.064439 
L 121.615185 67.883289 
L 121.821816 66.704682 
L 122.039468 65.528759 
L 122.268163 64.355663 
L 122.507929 63.185539 
L 122.758791 62.018532 
L 123.020779 60.854787 
L 123.293921 59.694453 
L 123.578252 58.537679 
L 123.873803 57.384615 
L 124.18061 56.235415 
L 124.498711 55.090234 
L 124.828144 53.949229 
L 125.168951 52.812559 
L 125.521174 51.680388 
L 125.884856 50.552879 
L 126.260046 49.430203 
L 126.64679 48.312531 
L 127.045138 47.200039 
L 127.455143 46.092908 
" clip-path="url(#padf24f9ae4)" style="fill: none; stroke: #000000; stroke-width: 0.5; stroke-linecap: square"/>
   </g>
   <g id="line2d_3">
    <path d="M 231.104857 133.907092 
L 231.514862 132.799961 
L 231.91321 131.687469 
L 232.299954 130.569797 
L 232.675144 129.447121 
L 233.038826 128.319612 
L 233.391049 127.187441 
L 233.731856 126.050771 
L 234.061289 124.909766 
L 234.37939 123.764585 
L 234.686197 122.615385 
L 234.981748 121.462321 
L 235.266079 120.305547 
L 235.539221 119.145213 
L 235.801209 117.981468 
L 236.052071 116.814461 
L 236.291837 115.644337 
L 236.520532 114.471241 
L 236.738184 113.295318 
L 236.944815 112.116711 
L 237.140448 110.935561 
L 237.325103 109.752009 
L 237.498801 108.566197 
L 237.661559 107.378262 
L 237.813394 106.188346 
L 237.958563 104.959194 
L 238.087392 103.77397 
L 238.205618 102.585875 
L 238.313206 101.395157 
L 238.410125 100.202062 
L 238.496346 99.006838 
L 238.571845 97.809734 
L 238.636599 96.611 
L 238.690589 95.410884 
L 238.7338 94.209639 
L 238.76622 93.007513 
L 238.787838 91.804759 
L 238.798649 90.601628 
L 238.798649 89.398372 
L 238.787838 88.195241 
L 238.76622 86.992487 
L 238.7338 85.790361 
L 238.690589 84.589116 
L 238.636599 83.389 
L 238.571845 82.190266 
L 238.496346 80.993162 
L 238.410125 79.797938 
L 238.313206 78.604843 
L 238.205618 77.414125 
L 238.087392 76.22603 
L 237.958563 75.040806 
L 237.813394 73.811654 
L 237.661559 72.621738 
L 237.498801 71.433803 
L 237.325103 70.247991 
L 237.140448 69.064439 
L 236.944815 67.883289 
L 236.738184 66.704682 
L 236.520532 65.528759 
L 236.291837 64.355663 
L 236.052071 63.185539 
L 235.801209 62.018532 
L 235.539221 60.854787 
L 235.266079 59.694453 
L 234.981748 58.537679 
L 234.686197 57.384615 
L 234.37939 56.235415 
L 234.061289 55.090234 
L 233.731856 53.949229 
L 233.391049 52.812559 
L 233.038826 51.680388 
L 232.675144 50.552879 
L 232.299954 49.430203 
L 231.91321 48.312531 
L 231.514862 47.200039 
L 231.104857 46.092908 
" clip-path="url(#padf24f9ae4)" style="fill: none; stroke: #000000; stroke-width: 0.5; stroke-linecap: square"/>
   </g>
   <g id="line2d_4">
    <path d="M 23.805428 133.907092 
L 27.951416 133.907092 
L 32.097405 133.907092 
L 36.243393 133.907092 
L 40.389382 133.907092 
L 44.535371 133.907092 
L 48.681359 133.907092 
L 52.827348 133.907092 
L 56.973336 133.907092 
L 61.119325 133.907092 
L 65.265314 133.907092 
L 69.411302 133.907092 
L 73.557291 133.907092 
L 77.703279 133.907092 
L 81.849268 133.907092 
L 85.995257 133.907092 
L 90.141245 133.907092 
L 94.287234 133.907092 
L 98.433222 133.907092 
L 102.579211 133.907092 
L 106.7252 133.907092 
L 110.871188 133.907092 
L 115.017177 133.907092 
L 119.163165 133.907092 
L 123.309154 133.907092 
L 127.455143 133.907092 
L 131.601131 133.907092 
L 135.74712 133.907092 
L 139.893108 133.907092 
L 144.039097 133.907092 
L 148.185086 133.907092 
L 152.331074 133.907092 
L 156.477063 133.907092 
L 160.623051 133.907092 
L 164.76904 133.907092 
L 168.915029 133.907092 
L 173.061017 133.907092 
L 177.207006 133.907092 
L 181.352994 133.907092 
L 185.498983 133.907092 
L 189.644971 133.907092 
L 193.79096 133.907092 
L 197.936949 133.907092 
L 202.082937 133.907092 
L 206.228926 133.907092 
L 210.374914 133.907092 
L 214.520903 133.907092 
L 218.666892 133.907092 
L 222.81288 133.907092 
L 226.958869 133.907092 
L 231.104857 133.907092 
L 235.250846 133.907092 
L 239.396835 133.907092 
L 243.542823 133.907092 
L 247.688812 133.907092 
L 251.8348 133.907092 
L 255.980789 133.907092 
L 260.126778 133.907092 
L 264.272766 133.907092 
L 268.418755 133.907092 
L 272.564743 133.907092 
L 276.710732 133.907092 
L 280.856721 133.907092 
L 285.002709 133.907092 
L 289.148698 133.907092 
L 293.294686 133.907092 
L 297.440675 133.907092 
L 301.586664 133.907092 
L 305.732652 133.907092 
L 309.878641 133.907092 
L 314.024629 133.907092 
L 318.170618 133.907092 
L 322.316607 133.907092 
L 326.462595 133.907092 
L 330.608584 133.907092 
L 334.754572 133.907092 
" clip-path="url(#padf24f9ae4)" style="fill: none; stroke: #000000; stroke-width: 0.5; stroke-linecap: square"/>
   </g>
   <g id="line2d_5">
    <path d="M 23.805428 46.092908 
L 27.951416 46.092908 
L 32.097405 46.092908 
L 36.243393 46.092908 
L 40.389382 46.092908 
L 44.535371 46.092908 
L 48.681359 46.092908 
L 52.827348 46.092908 
L 56.973336 46.092908 
L 61.119325 46.092908 
L 65.265314 46.092908 
L 69.411302 46.092908 
L 73.557291 46.092908 
L 77.703279 46.092908 
L 81.849268 46.092908 
L 85.995257 46.092908 
L 90.141245 46.092908 
L 94.287234 46.092908 
L 98.433222 46.092908 
L 102.579211 46.092908 
L 106.7252 46.092908 
L 110.871188 46.092908 
L 115.017177 46.092908 
L 119.163165 46.092908 
L 123.309154 46.092908 
L 127.455143 46.092908 
L 131.601131 46.092908 
L 135.74712 46.092908 
L 139.893108 46.092908 
L 144.039097 46.092908 
L 148.185086 46.092908 
L 152.331074 46.092908 
L 156.477063 46.092908 
L 160.623051 46.092908 
L 164.76904 46.092908 
L 168.915029 46.092908 
L 173.061017 46.092908 
L 177.207006 46.092908 
L 181.352994 46.092908 
L 185.498983 46.092908 
L 189.644971 46.092908 
L 193.79096 46.092908 
L 197.936949 46.092908 
L 202.082937 46.092908 
L 206.228926 46.092908 
L 210.374914 46.092908 
L 214.520903 46.092908 
L 218.666892 46.092908 
L 222.81288 46.092908 
L 226.958869 46.092908 
L 231.104857 46.092908 
L 235.250846 46.092908 
L 239.396835 46.092908 
L 243.542823 46.092908 
L 247.688812 46.092908 
L 251.8348 46.092908 
L 255.980789 46.092908 
L 260.126778 46.092908 
L 264.272766 46.092908 
L 268.418755 46.092908 
L 272.564743 46.092908 
L 276.710732 46.092908 
L 280.856721 46.092908 
L 285.002709 46.092908 
L 289.148698 46.092908 
L 293.294686 46.092908 
L 297.440675 46.092908 
L 301.586664 46.092908 
L 305.732652 46.092908 
L 309.878641 46.092908 
L 314.024629 46.092908 
L 318.170618 46.092908 
L 322.316607 46.092908 
L 326.462595 46.092908 
L 330.608584 46.092908 
L 334.754572 46.092908 
" clip-path="url(#padf24f9ae4)" style="fill: none; stroke: #000000; stroke-width: 0.5; stroke-linecap: square"/>
   </g>
   <g id="patch_3">
    <path d="M 179.28 179.28 
C 226.634666 179.28 272.056182 169.872896 305.540987 153.130493 
C 339.025792 136.388091 357.84 113.677333 357.84 90 
C 357.84 66.322667 339.025792 43.611909 305.540987 26.869507 
C 272.056182 10.127104 226.634666 0.72 179.28 0.72 
C 131.925334 0.72 86.503818 10.127104 53.019013 26.869507 
C 19.534208 43.611909 0.72 66.322667 0.72 90 
C 0.72 113.677333 19.534208 136.388091 53.019013 153.130493 
C 86.503818 169.872896 131.925334 179.28 179.28 179.28 
L 179.28 179.28 
z
" style="fill: none; stroke: #000000; stroke-width: 0.8; stroke-linejoin: miter; stroke-linecap: square"/>
   </g>
  </g>
 </g>
 <defs>
  <clipPath id="padf24f9ae4">
   <path d="M 179.28 179.28 
C 226.634666 179.28 272.056182 169.872896 305.540987 153.130493 
C 339.025792 136.388091 357.84 113.677333 357.84 90 
C 357.84 66.322667 339.025792 43.611909 305.540987 26.869507 
C 272.056182 10.127104 226.634666 0.72 179.28 0.72 
C 131.925334 0.72 86.503818 10.127104 53.019013 26.869507 
C 19.534208 43.611909 0.72 66.322667 0.72 90 
C 0.72 113.677333 19.534208 136.388091 53.019013 153.130493 
C 86.503818 169.872896 131.925334 179.28 179.28 179.28 
z
"/>
  </clipPath>
 </defs>
</svg>
